<?xml version="1.0" encoding="utf-8"?>
<!-- Generator: Adobe Illustrator 21.1.0, SVG Export Plug-In . SVG Version: 6.00 Build 0)  -->
<svg version="1.1" id="Layer_1" xmlns="http://www.w3.org/2000/svg" xmlns:xlink="http://www.w3.org/1999/xlink" x="0px" y="0px"
	 viewBox="0 0 66.3 71.4" style="enable-background:new 0 0 66.3 71.4;" xml:space="preserve">
<style type="text/css">
	.st0{fill:#231F20;}
</style>
<title>icon-calendar</title>
<path class="st0" d="M66.3,15.3v51c0,2.8-2.3,5.1-5.1,5.1H5.1c-2.8,0-5.1-2.3-5.1-5.1v-51c0-2.8,2.3-5.1,5.1-5.1h5.1V6.4
	c0-3.5,2.9-6.4,6.4-6.4h2.5c3.5,0,6.4,2.9,6.4,6.4v3.8h15.3V6.4c0-3.5,2.9-6.4,6.4-6.4h2.5c3.5,0,6.4,2.9,6.4,6.4v3.8h5.1
	C64,10.2,66.2,12.5,66.3,15.3z M61.2,25.5H5.1v40.8h56.1V25.5z M15.3,17.8c0,0.7,0.6,1.3,1.2,1.3c0,0,0,0,0,0h2.5
	c0.7,0,1.3-0.6,1.3-1.2c0,0,0,0,0,0V6.4c0-0.7-0.6-1.3-1.2-1.3c0,0,0,0,0,0h-2.6c-0.7,0-1.3,0.6-1.3,1.2c0,0,0,0,0,0L15.3,17.8z
	 M45.9,17.8c0,0.7,0.6,1.3,1.2,1.3c0,0,0,0,0,0h2.6c0.7,0,1.3-0.5,1.3-1.2c0,0,0,0,0-0.1V6.4c0-0.7-0.6-1.3-1.2-1.3c0,0,0,0-0.1,0
	h-2.5c-0.7,0-1.3,0.6-1.3,1.2c0,0,0,0,0,0L45.9,17.8z"/>
</svg>
