<?xml version="1.0" encoding="utf-8"?>
<!-- Generator: Adobe Illustrator 21.1.0, SVG Export Plug-In . SVG Version: 6.00 Build 0)  -->
<svg version="1.1" id="Layer_1" xmlns="http://www.w3.org/2000/svg" xmlns:xlink="http://www.w3.org/1999/xlink" x="0px" y="0px"
	 viewBox="0 0 37 51" style="enable-background:new 0 0 37 51;" xml:space="preserve">
<style type="text/css">
	.st0{fill:#FFFFFF;}
</style>
<title>Group 17</title>
<desc>Created with Sketch.</desc>
<g id="Save-integration">
	<g id="_x31_4-Confirmation" transform="translate(-34.000000, -467.000000)">
		<g id="Group-17" transform="translate(34.000000, 467.000000)">
			<polygon id="Rectangle-16" class="st0" points="0,2 27,2 35,14.3 35,49 0,49 			"/>
			<g id="pdf-file-format-symbol">
				<path id="Shape" d="M17.6,38c-0.6,0-1,0.1-1.2,0.1V46C16.6,46,17,46,17.3,46c2.5,0,4.1-1.3,4.1-4.2C21.4,39.3,20,38,17.6,38z"/>
				<path id="Shape_1_" d="M7.1,38C6.6,38,6.2,38,6,38.1v3.5c0.2,0.1,0.5,0.1,0.9,0.1c1.4,0,2.3-0.7,2.3-2C9.3,38.6,8.5,38,7.1,38z"
					/>
				<path id="Shape_2_" d="M36.7,12.1c0-0.2-0.1-0.5-0.2-0.6L26.7,0.3c0,0,0,0,0,0c-0.1-0.1-0.1-0.1-0.2-0.2c0,0,0,0-0.1,0
					c-0.1,0-0.1-0.1-0.2-0.1c0,0,0,0-0.1,0C26.1,0,26,0,26,0H2c-1.1,0-2,0.9-2,2v46.5c0,1.1,0.9,2,2,2h32.7c1.1,0,2-0.9,2-2V12.2
					C36.7,12.2,36.7,12.1,36.7,12.1z M10.8,42.5c-0.9,0.9-2.3,1.3-3.9,1.3c-0.4,0-0.7,0-0.9-0.1V48H3.3V36.2c0.8-0.1,2-0.2,3.7-0.2
					c1.7,0,2.9,0.3,3.7,1c0.8,0.6,1.3,1.6,1.3,2.8C11.9,40.8,11.6,41.8,10.8,42.5z M22.3,46.6c-1.3,1.1-3.2,1.5-5.5,1.5
					c-1.4,0-2.4-0.1-3.1-0.2V36.2c1-0.2,2.3-0.2,3.7-0.2c2.3,0,3.8,0.4,4.9,1.3c1.2,0.9,2,2.4,2,4.5C24.3,44,23.5,45.6,22.3,46.6z
					 M33.4,38.2h-4.6V41h4.3v2.2h-4.3V48h-2.7V36h7.3V38.2z M2,33.6V2H25v10.1c0,0.5,0.4,1,1,1h8.7l0,20.5H2z"/>
				<path id="Shape_3_" d="M28.5,21.3c-0.1,0-1.5-0.1-3.6-0.1c-0.7,0-1.3,0-2,0c-4.2-3.2-7.7-6.3-9.5-8.1c0-0.2,0.1-0.4,0.1-0.5
					c0.2-2.6,0-4.3-0.8-5.2c-0.5-0.6-1.3-0.7-2-0.5C10.1,7,9.2,7.5,8.9,8.4c-0.3,1.1,0.2,2.3,1.5,3.8c0,0,0.5,0.5,1.3,1.3
					c-0.5,2.6-1.9,8.1-2.6,10.7c-1.6,0.9-2.9,1.9-4,3.1l-0.1,0.1l0,0.1c-0.1,0.2-0.6,1.4-0.2,2.3c0.2,0.4,0.5,0.7,0.9,0.9l0.1,0
					c0,0,0.1,0,0.3,0c0.8,0,2.9-0.4,4-4.5l0.3-1c3.8-1.9,8.6-2.5,12-2.6c1.8,1.3,3.5,2.5,5.3,3.6l0.1,0c0.1,0,0.8,0.4,1.7,0.4l0,0
					c1.3,0,2.2-0.8,2.5-2.1l0-0.1c0.1-0.8-0.1-1.5-0.6-2C30.5,21.4,28.7,21.3,28.5,21.3z M6.2,29.3C6.2,29.3,6.2,29.3,6.2,29.3
					c-0.1-0.2,0-0.7,0.1-1.1c0.6-0.7,1.4-1.3,2.2-1.9C7.8,29.1,6.5,29.3,6.2,29.3z M11.5,11.2L11.5,11.2c-1.3-1.4-1.3-2.1-1.2-2.4
					C10.5,8.5,11,8.3,11,8.3c0.3-0.1,0.4-0.1,0.6,0.1c0.3,0.3,0.6,1.4,0.5,3.3C11.7,11.4,11.5,11.2,11.5,11.2z M10.9,23.5L10.9,23.5
					L10.9,23.5c0.7-2.6,1.6-6.3,2.1-8.7l0,0l0,0c1.7,1.6,4.4,4,7.6,6.5l0,0l0.1,0C17.6,21.6,14,22.2,10.9,23.5z M30.6,24.3
					c-0.2,0.8-0.7,1-1.1,1l0,0c-0.5,0-0.9-0.2-1-0.2c-1.2-0.7-2.4-1.5-3.6-2.4c0,0,0,0,0,0c2.1,0,3.4,0.1,3.5,0.1
					c0.3,0,1.4,0.2,1.9,0.7C30.5,23.7,30.6,24,30.6,24.3z"/>
			</g>
		</g>
	</g>
</g>
</svg>
