<svg xmlns="http://www.w3.org/2000/svg" viewBox="0 0 11.95 9.43"><title>Asset 2</title><g id="Layer_2" data-name="Layer 2"><g id="Layer_1-2" data-name="Layer 1"><path d="M9.43,7.5A1.93,1.93,0,0,1,7.5,9.43H1.93A1.93,1.93,0,0,1,0,7.5V1.93A1.93,1.93,0,0,1,1.93,0H7.5a1.88,1.88,0,0,1,.78.17.22.22,0,0,1,.12.15.21.21,0,0,1-.06.19L8,.84A.2.2,0,0,1,7.8.9a1.16,1.16,0,0,0-.3,0H1.93A1.08,1.08,0,0,0,.86,1.93V7.5A1.08,1.08,0,0,0,1.93,8.57H7.5A1.08,1.08,0,0,0,8.57,7.5V6.66a.21.21,0,0,1,.06-.15l.43-.43A.21.21,0,0,1,9.3,6a.21.21,0,0,1,.13.19Zm1.29-4.29-4.5,4.5H4.29V5.79l4.5-4.5Zm-4,3.08-1-1-.78.78v.38h.64v.64h.38Zm1.95-4L6.33,4.6a.15.15,0,1,0,.21.21L8.89,2.47a.15.15,0,1,0-.21-.21Zm2.47.53L9.22.86,9.83.24a.65.65,0,0,1,.91,0l1,1a.65.65,0,0,1,0,.91Z"/></g></g></svg>